<mxfile host="drawio-plugin" agent="Mozilla/5.0 (Windows NT 10.0; Win64; x64) AppleWebKit/537.36 (KHTML, like Gecko) Chrome/122.0.0.0 Safari/537.36" modified="2024-12-06T09:48:51.525Z" version="22.1.22" etag="gaVgKVPDHtDUO1QzqRbd" type="embed" pages="2">
  <diagram name="Server" id="Mh_NKx4pNMuec91e89ZP">
    <mxGraphModel dx="491" dy="473" grid="1" gridSize="10" guides="1" tooltips="1" connect="1" arrows="1" fold="1" page="1" pageScale="1" pageWidth="827" pageHeight="1169" math="0" shadow="0">
      <root>
        <mxCell id="0" />
        <mxCell id="1" parent="0" />
        <mxCell id="5" style="edgeStyle=orthogonalEdgeStyle;rounded=0;orthogonalLoop=1;jettySize=auto;html=1;exitX=0.5;exitY=0;exitDx=0;exitDy=0;" edge="1" parent="1" source="wYFm1lLZGYX_vIgCywQf-3" target="wYFm1lLZGYX_vIgCywQf-10">
          <mxGeometry relative="1" as="geometry" />
        </mxCell>
        <mxCell id="wYFm1lLZGYX_vIgCywQf-3" value="&lt;p style=&quot;margin:0px;margin-top:6px;text-align:center;&quot;&gt;&lt;b&gt;Server&lt;/b&gt;&lt;/p&gt;&lt;hr size=&quot;1&quot; style=&quot;border-style:solid;&quot;&gt;&lt;p style=&quot;margin:0px;margin-left:8px;&quot;&gt;+ Attribute1: Type&lt;br&gt;+ Attribute2: Type&lt;/p&gt;" style="align=left;overflow=fill;html=1;dropTarget=0;whiteSpace=wrap;" parent="1" vertex="1">
          <mxGeometry x="570" y="360" width="180" height="90" as="geometry" />
        </mxCell>
        <mxCell id="wYFm1lLZGYX_vIgCywQf-4" value="" style="shape=component;jettyWidth=8;jettyHeight=4;" parent="wYFm1lLZGYX_vIgCywQf-3" vertex="1">
          <mxGeometry x="1" width="20" height="20" relative="1" as="geometry">
            <mxPoint x="-24" y="4" as="offset" />
          </mxGeometry>
        </mxCell>
        <mxCell id="wYFm1lLZGYX_vIgCywQf-5" value="&lt;p style=&quot;margin:0px;margin-top:6px;text-align:center;&quot;&gt;&lt;b&gt;Board&lt;/b&gt;&lt;/p&gt;&lt;hr size=&quot;1&quot; style=&quot;border-style:solid;&quot;&gt;&lt;p style=&quot;margin:0px;margin-left:8px;&quot;&gt;+ Change state&lt;br&gt;+ Attribute2: Type&lt;/p&gt;" style="align=left;overflow=fill;html=1;dropTarget=0;whiteSpace=wrap;" parent="1" vertex="1">
          <mxGeometry x="50" y="100" width="180" height="90" as="geometry" />
        </mxCell>
        <mxCell id="wYFm1lLZGYX_vIgCywQf-6" value="" style="shape=component;jettyWidth=8;jettyHeight=4;" parent="wYFm1lLZGYX_vIgCywQf-5" vertex="1">
          <mxGeometry x="1" width="20" height="20" relative="1" as="geometry">
            <mxPoint x="-24" y="4" as="offset" />
          </mxGeometry>
        </mxCell>
        <mxCell id="wYFm1lLZGYX_vIgCywQf-7" value="&lt;p style=&quot;margin:0px;margin-top:6px;text-align:center;&quot;&gt;&lt;b&gt;Move Verifier&lt;br&gt;&lt;/b&gt;&lt;/p&gt;&lt;hr size=&quot;1&quot; style=&quot;border-style:solid;&quot;&gt;&lt;p style=&quot;margin:0px;margin-left:8px;&quot;&gt;+ Attribute1: Type&lt;br&gt;+ Attribute2: Type&lt;/p&gt;" style="align=left;overflow=fill;html=1;dropTarget=0;whiteSpace=wrap;" parent="1" vertex="1">
          <mxGeometry x="70" y="270" width="180" height="90" as="geometry" />
        </mxCell>
        <mxCell id="wYFm1lLZGYX_vIgCywQf-8" value="" style="shape=component;jettyWidth=8;jettyHeight=4;" parent="wYFm1lLZGYX_vIgCywQf-7" vertex="1">
          <mxGeometry x="1" width="20" height="20" relative="1" as="geometry">
            <mxPoint x="-24" y="4" as="offset" />
          </mxGeometry>
        </mxCell>
        <mxCell id="wYFm1lLZGYX_vIgCywQf-10" value="&lt;p style=&quot;margin:0px;margin-top:6px;text-align:center;&quot;&gt;&lt;b&gt;Player/client&lt;/b&gt;&lt;/p&gt;&lt;hr size=&quot;1&quot; style=&quot;border-style:solid;&quot;&gt;&lt;p style=&quot;margin:0px;margin-left:8px;&quot;&gt;+ Attribute1: Type&lt;br&gt;+ Attribute2: Type&lt;/p&gt;" style="align=left;overflow=fill;html=1;dropTarget=0;whiteSpace=wrap;" parent="1" vertex="1">
          <mxGeometry x="570" y="220" width="180" height="90" as="geometry" />
        </mxCell>
        <mxCell id="wYFm1lLZGYX_vIgCywQf-11" value="" style="shape=component;jettyWidth=8;jettyHeight=4;" parent="wYFm1lLZGYX_vIgCywQf-10" vertex="1">
          <mxGeometry x="1" width="20" height="20" relative="1" as="geometry">
            <mxPoint x="-24" y="4" as="offset" />
          </mxGeometry>
        </mxCell>
        <mxCell id="2" style="edgeStyle=orthogonalEdgeStyle;rounded=0;orthogonalLoop=1;jettySize=auto;html=1;exitX=0;exitY=0.5;exitDx=0;exitDy=0;entryX=0.5;entryY=0;entryDx=0;entryDy=0;" edge="1" parent="1" source="wYFm1lLZGYX_vIgCywQf-12" target="wYFm1lLZGYX_vIgCywQf-5">
          <mxGeometry relative="1" as="geometry" />
        </mxCell>
        <mxCell id="wYFm1lLZGYX_vIgCywQf-12" value="&lt;p style=&quot;margin:0px;margin-top:6px;text-align:center;&quot;&gt;&lt;b&gt;Game&lt;/b&gt;&lt;/p&gt;&lt;hr size=&quot;1&quot; style=&quot;border-style:solid;&quot;&gt;&lt;p style=&quot;margin:0px;margin-left:8px;&quot;&gt;+ Attribute1: Type&lt;br&gt;+ Attribute2: Type&lt;/p&gt;" style="align=left;overflow=fill;html=1;dropTarget=0;whiteSpace=wrap;" parent="1" vertex="1">
          <mxGeometry x="324" y="20" width="180" height="90" as="geometry" />
        </mxCell>
        <mxCell id="wYFm1lLZGYX_vIgCywQf-13" value="" style="shape=component;jettyWidth=8;jettyHeight=4;" parent="wYFm1lLZGYX_vIgCywQf-12" vertex="1">
          <mxGeometry x="1" width="20" height="20" relative="1" as="geometry">
            <mxPoint x="-24" y="4" as="offset" />
          </mxGeometry>
        </mxCell>
        <mxCell id="3" style="edgeStyle=orthogonalEdgeStyle;rounded=0;orthogonalLoop=1;jettySize=auto;html=1;exitX=0.5;exitY=1;exitDx=0;exitDy=0;entryX=1;entryY=0.667;entryDx=0;entryDy=0;entryPerimeter=0;" edge="1" parent="1" source="wYFm1lLZGYX_vIgCywQf-12" target="wYFm1lLZGYX_vIgCywQf-7">
          <mxGeometry relative="1" as="geometry" />
        </mxCell>
        <mxCell id="4" style="edgeStyle=orthogonalEdgeStyle;rounded=0;orthogonalLoop=1;jettySize=auto;html=1;exitX=0;exitY=0.5;exitDx=0;exitDy=0;entryX=0.794;entryY=1.037;entryDx=0;entryDy=0;entryPerimeter=0;" edge="1" parent="1" source="wYFm1lLZGYX_vIgCywQf-3" target="wYFm1lLZGYX_vIgCywQf-12">
          <mxGeometry relative="1" as="geometry" />
        </mxCell>
      </root>
    </mxGraphModel>
  </diagram>
  <diagram id="tdmLeAfPQgpOq1p6u9Lc" name="Client">
    <mxGraphModel dx="491" dy="473" grid="1" gridSize="10" guides="1" tooltips="1" connect="1" arrows="1" fold="1" page="1" pageScale="1" pageWidth="827" pageHeight="1169" math="0" shadow="0">
      <root>
        <mxCell id="0" />
        <mxCell id="1" parent="0" />
        <mxCell id="qL4lZKEsOjC43DvK7tLc-5" style="edgeStyle=orthogonalEdgeStyle;rounded=0;orthogonalLoop=1;jettySize=auto;html=1;exitX=0;exitY=0.5;exitDx=0;exitDy=0;entryX=1;entryY=0.5;entryDx=0;entryDy=0;" parent="1" source="ur3_eXzjgtlMLQ-y4_nW-7" target="ur3_eXzjgtlMLQ-y4_nW-11" edge="1">
          <mxGeometry relative="1" as="geometry" />
        </mxCell>
        <mxCell id="ur3_eXzjgtlMLQ-y4_nW-7" value="&lt;p style=&quot;margin:0px;margin-top:6px;text-align:center;&quot;&gt;&lt;b&gt;CLI i/o&lt;/b&gt;&lt;br&gt;&lt;/p&gt;&lt;hr size=&quot;1&quot; style=&quot;border-style:solid;&quot;&gt;&lt;p style=&quot;margin:0px;margin-left:8px;&quot;&gt;+ Attribute1: Type&lt;br&gt;+ Attribute2: Type&lt;/p&gt;" style="align=left;overflow=fill;html=1;dropTarget=0;whiteSpace=wrap;" parent="1" vertex="1">
          <mxGeometry x="580" y="240" width="180" height="90" as="geometry" />
        </mxCell>
        <mxCell id="ur3_eXzjgtlMLQ-y4_nW-8" value="" style="shape=component;jettyWidth=8;jettyHeight=4;" parent="ur3_eXzjgtlMLQ-y4_nW-7" vertex="1">
          <mxGeometry x="1" width="20" height="20" relative="1" as="geometry">
            <mxPoint x="-24" y="4" as="offset" />
          </mxGeometry>
        </mxCell>
        <mxCell id="ur3_eXzjgtlMLQ-y4_nW-9" value="&lt;br&gt;&lt;b&gt;Server communication&lt;/b&gt;" style="html=1;dropTarget=0;whiteSpace=wrap;" parent="1" vertex="1">
          <mxGeometry x="50" y="150" width="180" height="90" as="geometry" />
        </mxCell>
        <mxCell id="ur3_eXzjgtlMLQ-y4_nW-10" value="" style="shape=module;jettyWidth=8;jettyHeight=4;" parent="ur3_eXzjgtlMLQ-y4_nW-9" vertex="1">
          <mxGeometry x="1" width="20" height="20" relative="1" as="geometry">
            <mxPoint x="-27" y="7" as="offset" />
          </mxGeometry>
        </mxCell>
        <mxCell id="qL4lZKEsOjC43DvK7tLc-3" style="edgeStyle=orthogonalEdgeStyle;rounded=0;orthogonalLoop=1;jettySize=auto;html=1;exitX=0;exitY=0.5;exitDx=0;exitDy=0;entryX=1;entryY=0.5;entryDx=0;entryDy=0;" parent="1" source="ur3_eXzjgtlMLQ-y4_nW-11" target="ur3_eXzjgtlMLQ-y4_nW-9" edge="1">
          <mxGeometry relative="1" as="geometry" />
        </mxCell>
        <mxCell id="qL4lZKEsOjC43DvK7tLc-4" value="JSON" style="edgeLabel;html=1;align=center;verticalAlign=middle;resizable=0;points=[];" parent="qL4lZKEsOjC43DvK7tLc-3" vertex="1" connectable="0">
          <mxGeometry x="0.4677" y="1" relative="1" as="geometry">
            <mxPoint as="offset" />
          </mxGeometry>
        </mxCell>
        <mxCell id="ur3_eXzjgtlMLQ-y4_nW-11" value="I/O parser" style="html=1;dropTarget=0;whiteSpace=wrap;" parent="1" vertex="1">
          <mxGeometry x="324" y="120" width="180" height="90" as="geometry" />
        </mxCell>
        <mxCell id="ur3_eXzjgtlMLQ-y4_nW-12" value="" style="shape=module;jettyWidth=8;jettyHeight=4;" parent="ur3_eXzjgtlMLQ-y4_nW-11" vertex="1">
          <mxGeometry x="1" width="20" height="20" relative="1" as="geometry">
            <mxPoint x="-27" y="7" as="offset" />
          </mxGeometry>
        </mxCell>
      </root>
    </mxGraphModel>
  </diagram>
</mxfile>
